<svg version="1.0" xmlns="http://www.w3.org/2000/svg" width="896" height="709.33333" viewBox="0 0 672 532"><path d="M346.3 62.4c-2.3.7-6.2 1.7-8.7 2-2.5.4-4.8 1.1-5.1 1.6-.3.5-2.7 1.6-5.4 2.5-4.8 1.6-16.5 8.1-20.2 11.3-7 6-18.5 18.3-21.2 22.6-1.8 2.8-3.8 6-4.5 7.1-2.3 3.7-5.4 10.9-8.4 19.5-2.5 7.3-3 10.5-3.5 22.7-.8 18.9-.6 19.3 10.4 18.1 4.9-.6 10.6-.5 15.3.1 4.1.6 12.4 1.6 18.4 2.1 6.1.6 11.4 1.4 11.8 1.6.5.3 5.7 1.4 11.6 2.5 24.7 4.6 30.9 5.8 34.7 6.7 2.2.6 6.3 1.5 9 2.1 7.2 1.6 18.1 4.7 24.8 7 7.8 2.7 24.4 10.8 28.4 13.7 7.5 5.7 9.7 5 13.8-4.2 7.5-16.4 10.3-34.2 8.5-53.4-2-21.9-10.4-40.5-25.6-56.8C417.2 77.1 403 68.5 385 63.8c-9.7-2.6-32.5-3.4-38.7-1.4zM321.3 62.7c.9.2 2.3.2 3 0 .6-.3-.1-.5-1.8-.5-1.6 0-2.2.2-1.2.5z"/><path d="M303.9 69.3C290 77 281.2 84.2 272.1 95.5c-12.4 15.3-17 25.2-22.1 48-1 4.5-1.3 20.9-.4 24.2.5 2 1.3 2.3 5.3 2.3 2.6 0 5.2-.5 5.9-1.2.7-.7 1.2-4.3 1.3-8.8.1-18.2 5.5-39.9 13-52 .5-.8 1.6-2.9 2.5-4.5 2.9-5.3 11-14.8 17.8-21 8.5-7.8 8.8-8 12.4-9.9 1.8-.9 3.2-2.1 3.2-2.5 0-.5 1.6-1.5 3.5-2.1 1.9-.6 3.3-1.6 3-2.1-1.2-1.9-6.2-.6-13.6 3.4zM253.5 180.9c-5.5.4-11.3 1.3-12.8 1.9-1.6.7-3.9 1.2-5.2 1.2-4.4 0-20.5 5.8-29.3 10.6-12.7 6.9-23.6 18.2-33.3 34.4-3.2 5.3-5 11.2-3.9 12.5.6.8 5.3 2.3 10.3 3.5 17.1 3.9 26.9 8.6 36.2 17.3 7.7 7.1 10.5 11.6 14.1 22.5 2.6 8 3.3 22.6 1.3 27.9-.6 1.5-1.5 5.3-2 8.3-2.1 13.1-10.7 27.6-20.5 34.6-10.1 7.2-17.5 9.5-31.9 10-13.4.5-16.5 1-16.5 2.4 0 2.4 7.3 16.2 11.5 21.8 8.1 10.8 16 17 31.2 24.8 10.4 5.2 15.7 7.1 36.3 12.8 5.9 1.7 10 5.3 10 8.8 0 1.1.7 3.6 1.6 5.6 9.5 21.7 15.9 29 28.8 33 5.8 1.8 8.9 1.7 16.6-.5 12.7-3.6 24.4-12.3 35.1-26.1 2.1-2.7 4-3.7 9.5-5.2 3.8-1 9.6-2.1 12.9-2.4 3.3-.4 9.2-1.3 13-2 3.9-.8 10.3-1.9 14.4-2.5 8.5-1.3 9.7-.7 13.3 6.4 5.4 10.5 17.1 20 29.1 23.6 6.4 1.9 7.7 2 12.7.9 6-1.4 13-5.4 16-9.2 6.4-8.2 11-22.7 11.7-36.8.7-15.8.5-15.2 7.9-19.6 12.8-7.5 19.3-17.7 22.5-35.2 1-5.6 2.3-11.1 2.9-12.3.6-1.1 3-2.8 5.3-3.8 6.1-2.6 11.7-9.1 11.8-13.9.3-7.3-.3-10.7-2.6-14.7-3.1-5.4-7.5-8.5-12.2-8.5-2.1 0-4.3-.4-4.9-.8-.6-.4-2.1-5-3.3-10.2-4.6-19.2-11.5-35.6-20.4-48.2-2.3-3.3-4.9-7-5.7-8.2-2.1-3.1-13.6-14.4-18.9-18.6-7-5.5-23.5-15.2-31.1-18.3-16.8-6.9-25.9-10-36-12.1-16.5-3.6-36.1-7.2-60-11-5.8-.9-13.9-2.3-18-3.1-9.2-1.7-33.9-2.6-47.5-1.6zm44.7 44.1c3.9 1.1 7.8 2.6 8.8 3.5.9.8 2.1 1.5 2.6 1.5 1.8 0 9.4 7.1 11 10.2.9 1.7 2.9 7.2 4.6 12.2 3.7 11.6 4.1 25.8.9 33.1-7.2 16.4-25.7 25.5-48.8 24.2-16.6-1-26.3-7-33.2-20.8-5.4-10.8-7-21.6-4.7-31.9 1.9-8.1 3.5-11.6 8.2-17.2 6.5-7.9 15.9-12.9 28.4-15.2 10.7-1.9 14.1-1.9 22.2.4zM503 323.5c4.2 6.9.9 18.2-5.1 17.3-2.3-.3-2.4-.8-3.2-9.3-.4-4.9-.6-9.9-.2-11.2.5-2 .8-2.1 3.5-1.2 1.6.6 3.9 2.6 5 4.4zm-212.2 28.7c.8 3.9-14.4 29.7-22.7 38.7-5.6 6-16.6 12.9-22.6 14.1-12 2.5-19.9.8-30.9-6.5-6.9-4.5-17.6-16.6-17.6-19.8 0-2.1.3-2.2 7.2-1.9 13 .7 35.3-5.6 61.3-17.3 1.7-.7 7.1-3.1 12-5.3 9.5-4.3 12.8-4.8 13.3-2z"/><path d="M275.9 235.9c-5.3 5.4-3.5 13.8 3.6 16.1 5.2 1.7 9.1.4 12-3.8 3-4.3 3.1-7.9.6-10.9-4.2-5.1-11.8-5.7-16.2-1.4zM178 197.7c-4.2.7-13.2 4.6-17.5 7.4-3.9 2.7-10.5 9.1-10.5 10.4 0 .3-.9 1.8-2 3.3-2.3 3.3-4.1 9.7-4.7 17.4-.4 5.1-.3 5.7 1.7 6.3 3 1 3.6-.3 4.3-9 .6-7.8 3.8-15 8-18 1.9-1.3 2.3-1.3 4.2.4 4 3.7 6.2 4.3 9.5 2.6 3.9-2 5.4-5.6 3.8-9-1.6-3.4-.3-4.5 8-7 4.5-1.4 6.8-2.6 7-3.8.3-1.4-.4-1.7-4.5-1.6-2.6.1-5.9.4-7.3.6zM146.5 250.9c-17.5 4.3-29 21.5-32.6 48.6-2 15.2 2.4 32.9 10.9 43.1 3 3.7 13.4 10 20.7 12.5 6.4 2.2 8.6 2.4 25.5 2.4h18.5l6.8-3.2c4.4-2.1 8.8-5.3 12.2-8.8 5.2-5.3 11.5-15.8 11.5-19.3 0-.9.8-3.1 1.7-4.7 1.3-2.4 1.7-6 1.7-19 .1-15.3 0-16.2-2.6-21.6-9-19-33.5-31.1-62.3-30.8-4.9.1-10.3.4-12 .8zm-3.7 23.2c4.8 1.7 7.2 7.6 7.2 18 0 7.2-.4 9.3-2.6 13.8-3.2 6.3-9.2 11.1-13.9 11.1-3.9 0-8.1-4.6-9.1-9.8-1.4-7.4 2.6-23 7.4-28.8 1.4-1.6 5.5-4.4 7.8-5.4.1 0 1.5.5 3.2 1.1zm51.2 14.8c3.9 4.1 5 6.3 6.8 12.9 2.8 10 2.8 10.2-.5 18.7-3.1 8.1-10.1 15.8-15.9 17.4-16 4.4-26.1-26.4-14.3-43.6 4.4-6.3 10.2-10.3 15.2-10.3 3.6 0 4.7.6 8.7 4.9zM192 420.5c-2.6 3.1 1.9 27.1 7 37.3 3.3 6.6 7.7 11.1 13.9 14.3 3.5 1.8 5.8 2.2 13 2.1 4.7-.1 10-.5 11.6-1.1 5-1.6 13.7-5 14.3-5.5.2-.3-.7-2.7-2.2-5.3-4.5-8.2-8.5-17.1-9.1-20.7-1-4.9-4.2-7.5-10.8-8.6-3-.5-6.9-1.6-8.6-2.4-1.6-.9-3.7-1.6-4.6-1.6-1.6 0-9.9-3.5-16-6.6-5.7-3-7.3-3.4-8.5-1.9zM371.5 443.6c-2.7.7-6.9 1.4-9.1 1.4-5.1 0-6.7 1.6-5.5 5.7 1 3.6 5.1 10.1 7.8 12.5 2.6 2.3 10 4.9 14.3 5 1.9 0 6.8-1 10.8-2.2 10-3 10.6-4.9 4.1-11-2.7-2.5-4.9-5.3-4.9-6.1 0-.7-1.2-2.6-2.5-4.2-2.8-3.1-6.7-3.4-15-1.1z"/></svg>